<svg width="84" height="24" viewBox="0 0 84 24" fill="none" xmlns="http://www.w3.org/2000/svg">
<path d="M20.6194 23.7262C21.6236 23.7262 22.4425 22.9464 22.4425 21.9867C22.4425 21.042 21.6236 20.2322 20.6194 20.2322C19.5997 20.2322 18.8118 21.042 18.8118 21.9867C18.8118 22.9464 19.5997 23.7262 20.6194 23.7262Z" fill="#DFBBFE"/>
<path d="M27.0143 23.5162V19.2425C27.0143 18.3127 27.6941 17.6979 28.6365 17.6979C29.3472 17.6979 29.8725 18.2228 29.8725 18.8976V23.5162H33.2714V19.2425C33.2714 18.3277 33.982 17.6979 34.8627 17.6979C35.5733 17.6979 36.145 18.1178 36.145 18.8976V23.5162H39.5439V18.4327C39.5439 16.5582 38.0298 15.5535 36.0059 15.5535C34.6309 15.5535 33.534 16.0034 32.7924 16.8731C32.2053 16.0034 31.2475 15.5535 29.8261 15.5535C28.5747 15.5535 27.5859 15.9584 26.8907 16.7682L26.8135 15.7785H23.6154V23.5162H27.0143Z" fill="#DFBBFE"/>
<path d="M46.0488 23.8012C48.9533 23.8012 51.5334 22.3166 51.5334 19.6923C51.5334 17.0381 49.046 15.5235 46.0488 15.5235C43.1134 15.5235 40.5643 16.9781 40.5643 19.6923C40.5643 22.3166 43.1134 23.8012 46.0488 23.8012ZM46.0334 21.6568C44.8901 21.6568 43.994 20.757 43.994 19.6623C43.994 18.5827 44.8901 17.6679 46.0334 17.6679C47.1766 17.6679 48.1036 18.5827 48.1036 19.6623C48.1036 20.757 47.1766 21.6568 46.0334 21.6568Z" fill="#DFBBFE"/>
<path d="M55.952 23.5162V19.3924C55.952 18.3577 56.709 17.7729 57.7287 17.7729C58.5938 17.7729 59.1191 18.2378 59.1191 19.0025V23.5162H62.518V18.3877C62.518 16.5432 60.9422 15.5685 58.9183 15.5685C57.5742 15.5685 56.5545 16.0034 55.8593 16.8432L55.7357 15.7785H52.5531V23.5162H55.952Z" fill="#DFBBFE"/>
<path d="M74.2026 15.7785H70.1084L68.5635 17.0981L67.1576 18.3877L67.1885 16.7532V12.8393H63.7896V23.5162H67.1885V21.1019L68.0073 20.5021L68.7334 21.4318L70.402 23.5162H74.5424L70.3093 18.8976L74.2026 15.7785Z" fill="#DFBBFE"/>
<path d="M78.9249 23.8312C82.0612 23.8312 83.8688 22.9914 83.8688 21.012C83.8688 19.6773 82.8182 18.7926 80.2845 18.5827L78.5078 18.4327C77.7044 18.3577 77.3491 18.1778 77.3491 17.8029C77.3491 17.398 77.8898 17.1881 78.7704 17.1881C79.8828 17.1881 80.2845 17.428 80.4081 17.9678L83.5598 17.8929C83.2817 16.3333 81.7367 15.4935 78.894 15.4935C75.7423 15.4935 74.3364 16.5282 74.3364 18.1178C74.3364 19.4824 75.387 20.2772 77.8125 20.5021L79.6356 20.6671C80.3308 20.727 80.717 20.907 80.717 21.3269C80.717 21.7917 80.2072 22.0617 79.0794 22.0617C77.8898 22.0617 77.4572 21.7318 77.3182 21.1169L74.0892 21.1919C74.3055 22.8114 75.7114 23.8312 78.9249 23.8312Z" fill="#DFBBFE"/>
<path d="M3.39889 12.7953V8.5215C3.39889 7.59176 4.07867 6.97694 5.02109 6.97694C5.73177 6.97694 6.25705 7.50179 6.25705 8.1766V12.7953H9.65594V8.5215C9.65594 7.60676 10.3666 6.97694 11.2472 6.97694C11.9579 6.97694 12.5296 7.39682 12.5296 8.1766V12.7953H15.9284V7.71173C15.9284 5.83727 14.4144 4.83255 12.3905 4.83255C11.0155 4.83255 9.91859 5.28242 9.17701 6.15218C8.58993 5.28242 7.63206 4.83255 6.2107 4.83255C4.95929 4.83255 3.97052 5.23744 3.2753 6.04721L3.19805 5.05749H0V12.7953H3.39889Z" fill="#DFBBFE"/>
<path d="M22.4643 13.0652C24.689 13.0652 26.6975 12.3304 27.4854 10.5459L24.2256 10.381C23.8857 10.9358 23.314 11.2057 22.4489 11.2057C21.182 11.2057 20.4713 10.6509 20.3014 9.61619H27.748V9.2263C27.748 6.48208 25.4306 4.81756 22.2944 4.81756C19.3435 4.81756 16.9179 6.33212 16.9179 8.92638C16.9179 11.5956 19.3281 13.0652 22.4643 13.0652ZM20.3168 8.07163C20.5177 7.1269 21.182 6.66203 22.3098 6.66203C23.4531 6.66203 24.0865 7.1269 24.241 8.07163H20.3168Z" fill="#DFBBFE"/>
<path d="M36.2036 5.80728C35.4312 5.10248 34.396 4.77257 33.1137 4.77257C30.7345 4.77257 28.6179 6.19716 28.6179 8.92638C28.6179 11.5356 30.3946 13.1102 33.1755 13.1102C34.6278 13.1102 35.6938 12.6603 36.389 11.7906L36.4817 12.7953H39.6025V2.11833H36.2036V5.80728ZM34.1025 10.8608C33.0365 10.8608 32.0477 10.381 32.0477 8.8814C32.0477 7.41182 33.0519 6.87197 34.118 6.87197C35.4157 6.87197 36.2809 7.56177 36.2809 8.8814C36.2809 10.216 35.4157 10.8608 34.1025 10.8608Z" fill="#DFBBFE"/>
<path d="M42.6212 4.27771C43.5945 4.27771 44.3207 3.60291 44.3207 2.61319C44.3207 1.68345 43.5945 0.993652 42.6212 0.993652C41.6479 0.993652 40.9218 1.68345 40.9218 2.61319C40.9218 3.60291 41.6479 4.27771 42.6212 4.27771ZM44.3207 12.7953V5.05749H40.9218V12.7953H44.3207Z" fill="#DFBBFE"/>
<path d="M55.9328 12.7953C55.6547 12.3004 55.562 11.5956 55.562 10.8458V7.77171C55.562 5.86726 54.3415 4.78757 50.7263 4.78757C47.3274 4.78757 45.9833 5.7173 45.7516 7.50179L48.996 7.62176C49.0732 6.67703 49.7221 6.43709 50.649 6.43709C51.746 6.43709 52.1631 6.73701 52.1631 7.41182V7.54678C52.1631 7.8017 52.0704 7.90667 51.1743 7.99665L48.6715 8.23658C46.0142 8.49151 45.319 9.34626 45.319 10.7109C45.319 12.3154 46.4468 13.1102 48.9033 13.1102C50.4791 13.1102 51.5915 12.7653 52.3485 12.0605C52.4103 12.3754 52.4875 12.5853 52.5648 12.7953H55.9328ZM49.8148 11.3557C48.996 11.3557 48.6252 11.0708 48.6252 10.5159C48.6252 9.99108 48.9033 9.67617 50.1083 9.54121L52.0241 9.31627C52.1013 9.30128 52.1786 9.30128 52.2558 9.27128V9.75115C52.2558 10.7709 51.1589 11.3557 49.8148 11.3557Z" fill="#DFBBFE"/>
</svg>
