<svg width="254" height="11" viewBox="0 0 254 11" fill="none" xmlns="http://www.w3.org/2000/svg">
<path d="M1 1.84836C79.8029 1.4772 158.722 0.615611 237.535 1.19468C268.593 1.42288 243.744 1.93393 238.615 2.03513C188.161 3.0305 137.705 3.58242 87.3018 5.25165C71.9247 5.7609 56.5457 6.34619 41.1851 6.98442C39.7569 7.04376 38.2843 6.97999 36.9034 7.18156C33.079 7.73983 44.8393 7.15237 48.8058 7.09855C89.5667 6.54553 130.29 5.97796 171.07 5.97796C177.873 5.97796 198.261 5.83699 191.477 6.10247C183.477 6.41553 175.243 6.25494 167.24 6.35149C155.325 6.49525 143.432 6.7375 131.533 7.09855C118.714 7.48753 105.76 7.7242 92.9977 8.50967C78.0541 9.42941 123.051 9.34868 138.093 9.49538C142.087 9.53433 146.08 9.57443 150.074 9.60952C153.085 9.63597 156.124 9.86328 159.109 9.65102C161.015 9.51548 155.286 9.42723 153.374 9.31899" stroke="#FF2CE4" stroke-width="2" stroke-linecap="round"/>
</svg>
